<?xml version="1.0" encoding="utf-8"?>
<!-- Generator: Adobe Illustrator 27.5.0, SVG Export Plug-In . SVG Version: 6.00 Build 0)  -->
<svg version="1.1" id="Layer_1" xmlns="http://www.w3.org/2000/svg" xmlns:xlink="http://www.w3.org/1999/xlink" x="0px" y="0px"
	 viewBox="0 0 30 34.8" style="enable-background:new 0 0 30 34.8;" xml:space="preserve">
<style type="text/css">
	.st0{fill-rule:evenodd;clip-rule:evenodd;fill:#FFFFFF;}
</style>
<path class="st0" d="M7.5,28.3C7.5,28.3,7.5,28.3,7.5,28.3c1,1.3,2.3,2.4,3.8,3.1l0,0c1.5,0.8,3.3,1.2,5.1,1.2c2.6,0,5.1-0.9,7-2.4
	c0,0,0,0,0,0c1.1-0.9,2.1-2,2.8-3.2c0,0,0,0,0,0c1-1.7,1.5-3.6,1.5-5.7c0-2.4-0.7-4.6-2-6.5c0,0,0,0,0,0c-0.9-1.2-2-2.3-3.2-3.1
	c0,0,0,0,0,0c-1.8-1.1-3.8-1.8-6.1-1.8C10.2,9.9,5.1,15,5.1,21.3C5.1,23.9,6,26.3,7.5,28.3L7.5,28.3z M15.7,30.7
	c-0.7,0.2-1.4,0.4-2,0.5c0.8,0.2,1.7,0.3,2.7,0.3c0.2,0,0.4,0,0.6,0C16.6,31.3,16.2,31,15.7,30.7z M10.3,13
	c-0.9,0.6-1.6,1.4-2.2,2.3c0,0.8,0.3,4,2.1,7.5c0,0,0,0.1,0,0.1c1.5,3,4.1,6.3,8.6,8.5c1.2-0.3,2.3-0.8,3.3-1.4
	C12.4,25.4,10.6,15.4,10.3,13L10.3,13z M12.1,27.5c-1.3,0.4-2.4,0.7-3.1,0.8c0.8,0.8,1.7,1.5,2.7,2.1c0.4,0,1.5-0.1,3-0.4
	C13.7,29.2,12.8,28.3,12.1,27.5L12.1,27.5z M14.4,11.2c-1.1,0.2-2.2,0.6-3.1,1.2c0,0,0,0,0,0.1c0,0,0.9,12,11.7,16.7
	c0.8-0.6,1.4-1.4,2-2.2c-2.3-1-4.1-2.4-5.5-4c0,0,0,0,0,0c0,0,0,0,0,0C15.6,18.5,14.6,13,14.4,11.2L14.4,11.2z M9.4,23.6
	c-1.2,0.4-2.2,0.6-2.8,0.7c0.3,1.1,0.9,2.1,1.5,3c0.5-0.1,1.7-0.3,3.2-0.8C10.6,25.6,10,24.6,9.4,23.6L9.4,23.6z M26.7,22.2
	c-0.7,1.2-1.5,2.3-2.4,3.2c0.4,0.2,0.8,0.4,1.2,0.6C26.1,24.8,26.5,23.5,26.7,22.2L26.7,22.2z M25.4,16.2c-1.3,2.7-2.9,4.7-4.7,6.4
	c0.8,0.8,1.7,1.6,2.8,2.3c1.2-1.3,2.3-2.9,3.2-4.8C26.5,18.6,26,17.4,25.4,16.2L25.4,16.2z M7.2,16.7c-0.7,1.4-1.1,2.9-1.1,4.5
	c0,0.7,0.1,1.4,0.2,2.1c0.5-0.1,1.5-0.3,2.6-0.7C7.9,20.3,7.4,18.1,7.2,16.7L7.2,16.7z M22.4,12.9c-1.1,2.5-2.7,4.5-4.5,6
	c0.5,1,1.2,1.9,2,2.9c1.9-1.7,3.6-3.8,4.8-6.6C24.1,14.3,23.3,13.6,22.4,12.9L22.4,12.9z M21.5,12.4C20,11.5,18.3,11,16.4,11
	c-0.3,0-0.7,0-1,0c0.1,1.1,0.6,4,2,7C19.1,16.5,20.5,14.7,21.5,12.4L21.5,12.4z M5.5,10.1l2,3.4c0.2-0.3,0.5-0.5,0.7-0.8L6.4,9.6
	c0.1-0.2,0.2-0.4,0.2-0.7c0-0.6-0.1-1.3-0.6-2c-0.4-0.7-1-1.3-1.5-1.5c-0.5-0.2-0.9-0.2-1.2,0C3,5.5,2.8,5.9,2.7,6.4
	c0,0.6,0.1,1.3,0.6,2c0.4,0.7,1,1.3,1.5,1.5C5,10,5.3,10.1,5.5,10.1L5.5,10.1z M11.7,7.6l0.2,2.7c0.3-0.1,0.7-0.3,1-0.4l-0.1-2.4
	C13,7.4,13.1,7.3,13.3,7c0.3-0.5,0.5-1.2,0.4-2.1c0-0.8-0.3-1.6-0.7-2c-0.3-0.4-0.7-0.6-1.1-0.6c-0.4,0-0.8,0.3-1,0.7
	c-0.3,0.5-0.5,1.2-0.4,2.1c0,0.8,0.3,1.6,0.7,2C11.3,7.4,11.5,7.5,11.7,7.6L11.7,7.6z M5.5,9c0,0,0-0.1,0-0.1c0-0.1,0-0.2,0-0.3
	c0-0.4-0.2-0.8-0.4-1.3c-0.3-0.4-0.6-0.8-0.9-1C4.2,6.3,4.1,6.2,4,6.2c-0.1,0-0.1,0-0.1,0c0,0-0.1,0.1-0.1,0.1c0,0.1,0,0.2,0,0.3
	C3.8,7,4,7.5,4.2,7.9c0.3,0.4,0.6,0.8,0.9,1C5.2,9,5.3,9,5.4,9C5.4,9,5.5,9.1,5.5,9C5.5,9,5.5,9,5.5,9C5.5,9,5.5,9,5.5,9L5.5,9z
	 M12.2,6.7c0,0,0.1,0,0.1-0.1c0.1-0.1,0.1-0.2,0.2-0.3C12.6,6,12.7,5.5,12.6,5c0-0.5-0.2-1-0.3-1.3c-0.1-0.1-0.1-0.2-0.2-0.3
	c0,0-0.1-0.1-0.1-0.1c0,0-0.1,0-0.1,0.1c-0.1,0.1-0.1,0.2-0.2,0.3c-0.1,0.3-0.2,0.8-0.2,1.3c0,0.5,0.2,1,0.3,1.3
	c0.1,0.1,0.1,0.2,0.2,0.3C12.1,6.6,12.1,6.7,12.2,6.7C12.2,6.7,12.2,6.7,12.2,6.7C12.2,6.7,12.2,6.7,12.2,6.7L12.2,6.7z"/>
</svg>
