<?xml version="1.0" encoding="UTF-8"?>
<svg width="100pt" height="100pt" version="1.1" viewBox="0 0 100 100" xmlns="http://www.w3.org/2000/svg">
 <path d="m26.777 82.352c0.007812 0.011719 0.023437 0.023438 0.03125 0.039063 3.0547 3.8711 6.9336 7.0625 11.371 9.3086l0.015624 0.007812c4.6016 2.3281 9.8047 3.6406 15.309 3.6406 7.9219 0 15.215-2.7148 21-7.2695 0.015625-0.011719 0.03125-0.023437 0.046875-0.039063 3.3672-2.6602 6.2148-5.9414 8.3828-9.668 0.007812-0.011719 0.015625-0.027344 0.023437-0.039063 2.8906-5 4.543-10.797 4.543-16.98 0-7.1953-2.2422-13.875-6.0625-19.371-0.007812-0.007813-0.011719-0.019531-0.019531-0.027344-2.5781-3.6953-5.8672-6.8594-9.6719-9.2852-0.019532-0.011719-0.039063-0.023438-0.054688-0.035157-5.2617-3.3398-11.504-5.2734-18.188-5.2734-18.762 0-33.996 15.23-33.996 33.992 0 7.9258 2.7148 15.219 7.2695 21.004zm24.742 7.418c-2.2109 0.64844-4.2422 1.0977-5.9922 1.4062 2.5469 0.67969 5.2227 1.043 7.9805 1.043 0.625 0 1.2461-0.019531 1.8672-0.054688-1.3477-0.76562-2.6328-1.5664-3.8555-2.3945zm-16.359-53.242c-2.5703 1.9023-4.8359 4.1953-6.7109 6.793 0.14062 2.2695 1.0273 11.883 6.2656 22.461 0.046875 0.074219 0.085937 0.15234 0.11719 0.23438 4.5742 9.1367 12.402 18.957 25.801 25.375 3.5391-0.83984 6.8477-2.2891 9.8047-4.2305-28.82-13.52-34.355-43.543-35.277-50.633zm5.293 43.477c-3.9414 1.3125-7.2461 2.0703-9.4297 2.4922 2.3672 2.5117 5.1484 4.6328 8.2344 6.2422 1.0664-0.03125 4.4453-0.21875 9.0078-1.332-2.9727-2.3203-5.5586-4.8203-7.8164-7.4023zm7.0312-48.938c-3.3594 0.66406-6.5234 1.875-9.3984 3.5391 0.011718 0.054687 0.019531 0.11719 0.023437 0.17969 0 0 2.5781 36.074 35.195 50.242 2.3125-1.9375 4.3359-4.207 6-6.7344-6.8438-3.0547-12.234-7.2852-16.477-11.992-0.027344-0.027343-0.054687-0.054687-0.082031-0.085937-0.007813-0.011719-0.023438-0.023438-0.03125-0.039063-11.695-13.07-14.586-29.758-15.234-35.105zm-14.879 37.43c-3.7188 1.1914-6.7422 1.8633-8.5273 2.207 1.043 3.2812 2.6211 6.3242 4.6328 9.0273 1.543-0.23828 5.0625-0.88281 9.6094-2.3203-2.2773-2.9414-4.1602-5.957-5.7109-8.9141zm51.648-4.4219c-2.1797 3.6953-4.5703 6.8984-7.082 9.6797 1.1875 0.64844 2.4297 1.2578 3.7266 1.8242 1.8203-3.4961 2.9961-7.3828 3.3555-11.508zm-3.8711-17.902c-3.7578 7.957-8.7812 14.223-14.227 19.148 2.3828 2.4766 5.1211 4.7852 8.2734 6.8047 3.582-3.8672 6.9219-8.6367 9.7188-14.512-0.49609-4.1172-1.8047-7.9883-3.7656-11.441zm-54.578 1.543c-2.0312 4.1133-3.1719 8.7422-3.1719 13.633 0 2.168 0.22656 4.2852 0.64844 6.3242 1.582-0.30078 4.3984-0.91016 7.9258-2.0117-3.2969-7.1328-4.7578-13.715-5.4023-17.945zm45.77-11.391c-3.3477 7.4922-8.1211 13.414-13.402 18.082 1.6133 2.9141 3.5547 5.8281 5.8906 8.5938 5.5703-5.0391 10.664-11.543 14.305-19.945-1.9023-2.5781-4.1953-4.8516-6.7891-6.7305zm-2.6562-1.7227c-4.5391-2.6211-9.8047-4.1211-15.414-4.1211-0.99219 0-1.9727 0.046875-2.9336 0.13672 0.38281 3.3242 1.7344 11.859 6.1172 20.922 4.8359-4.4023 9.1914-9.957 12.227-16.938zm-48.094-6.8047 5.8828 10.191c0.71094-0.82031 1.4648-1.6016 2.25-2.3516l-5.4297-9.3984c0.35938-0.57812 0.58984-1.3047 0.65234-2.1523 0.12891-1.6641-0.41406-3.918-1.668-6.0938-1.2578-2.1797-2.9375-3.7734-4.4453-4.4961-1.4062-0.67578-2.7266-0.65625-3.7422-0.070313-1.0156 0.58594-1.6953 1.7266-1.8086 3.2773-0.125 1.668 0.41406 3.918 1.6719 6.0977 1.2578 2.1758 2.9336 3.7695 4.4453 4.4922 0.76563 0.36719 1.5078 0.53125 2.1914 0.50781zm18.617-7.375 0.47656 8.0625c1-0.41406 2.0234-0.78516 3.0625-1.1055l-0.42188-7.1406c0.58203-0.35547 1.1133-0.89844 1.5508-1.6289 0.85547-1.4375 1.3828-3.6914 1.2344-6.1992-0.14844-2.5078-0.9375-4.6836-1.9609-6.0078-0.95312-1.2344-2.1484-1.8086-3.3164-1.7422-1.168 0.070313-2.2852 0.78125-3.0859 2.1211-0.85938 1.4336-1.3828 3.6875-1.2344 6.1953 0.14844 2.5078 0.93359 4.6836 1.9609 6.0078 0.51953 0.67578 1.1094 1.1484 1.7305 1.4336zm-18.586 4.1992c0.085937-0.078125 0.11719-0.21875 0.14844-0.36328 0.070313-0.27734 0.085938-0.60156 0.066406-0.94922-0.070312-1.1094-0.50781-2.4453-1.2656-3.7578-0.75781-1.3125-1.6953-2.3633-2.6211-2.9766-0.29297-0.19531-0.57812-0.33984-0.85547-0.41797-0.16406-0.046875-0.31641-0.10156-0.4375-0.03125-0.125 0.070312-0.15234 0.23047-0.19531 0.39844-0.070312 0.27734-0.085937 0.60156-0.0625 0.94922 0.066407 1.1094 0.50391 2.4453 1.2617 3.7578 0.75781 1.3125 1.6953 2.3594 2.6211 2.9727 0.29297 0.19531 0.58203 0.33984 0.85547 0.41797 0.14453 0.042968 0.27734 0.089844 0.39062 0.054687 0.015625-0.007812 0.03125-0.019531 0.046875-0.027343 0.011718-0.007813 0.027344-0.015626 0.042968-0.023438zm20.035-7.0234c0.11719-0.03125 0.20312-0.14453 0.30078-0.25781 0.1875-0.21484 0.34375-0.49609 0.48047-0.82031 0.4375-1.0234 0.64453-2.4141 0.55469-3.9297-0.089843-1.5117-0.46094-2.8672-1.0156-3.8359-0.17578-0.30469-0.36719-0.5625-0.57422-0.75781-0.12891-0.11719-0.23828-0.23438-0.38281-0.22656-0.14062 0.007813-0.23828 0.13672-0.35156 0.26953-0.18359 0.21484-0.34375 0.49609-0.48047 0.82031-0.4375 1.0234-0.64453 2.4141-0.55469 3.9297 0.089843 1.5117 0.46094 2.8711 1.0117 3.8359 0.17578 0.30469 0.36719 0.5625 0.57812 0.75781 0.10938 0.10156 0.20703 0.20313 0.32422 0.22266 0.019531 0 0.035156-0.003907 0.054688-0.003907 0.015624 0 0.035156-0.003906 0.050781-0.003906z" fill="#fff" fill-rule="evenodd"/>
</svg>
