<?xml version="1.0" encoding="utf-8"?>
<!-- Generator: Adobe Illustrator 27.5.0, SVG Export Plug-In . SVG Version: 6.00 Build 0)  -->
<svg version="1.1" id="Layer_1" xmlns="http://www.w3.org/2000/svg" xmlns:xlink="http://www.w3.org/1999/xlink" x="0px" y="0px"
	 viewBox="0 0 100 100" style="enable-background:new 0 0 100 100;" xml:space="preserve">
<style type="text/css">
	.st0{fill-rule:evenodd;clip-rule:evenodd;fill:#FFFFFF;}
</style>
<path class="st0" d="M43.9,58.6C43.9,58.6,43.9,58.6,43.9,58.6c0.8,1,1.8,1.9,3,2.5l0,0c1.2,0.6,2.6,1,4.1,1c2.1,0,4-0.7,5.6-1.9
	c0,0,0,0,0,0c0.9-0.7,1.6-1.6,2.2-2.6c0,0,0,0,0,0c0.8-1.3,1.2-2.9,1.2-4.5c0-1.9-0.6-3.7-1.6-5.1c0,0,0,0,0,0
	c-0.7-1-1.6-1.8-2.6-2.5c0,0,0,0,0,0c-1.4-0.9-3-1.4-4.8-1.4c-5,0-9,4-9,9C41.9,55.1,42.6,57,43.9,58.6L43.9,58.6z M50.4,60.5
	c-0.6,0.2-1.1,0.3-1.6,0.4c0.7,0.2,1.4,0.3,2.1,0.3c0.2,0,0.3,0,0.5,0C51.1,61,50.7,60.7,50.4,60.5z M46.1,46.4
	c-0.7,0.5-1.3,1.1-1.8,1.8c0,0.6,0.3,3.1,1.7,5.9c0,0,0,0,0,0.1c1.2,2.4,3.3,5,6.8,6.7c0.9-0.2,1.8-0.6,2.6-1.1
	C47.8,56.3,46.3,48.3,46.1,46.4L46.1,46.4z M47.5,57.9c-1,0.3-1.9,0.5-2.5,0.7c0.6,0.7,1.4,1.2,2.2,1.7c0.3,0,1.2-0.1,2.4-0.4
	C48.8,59.3,48.1,58.6,47.5,57.9L47.5,57.9z M49.3,45c-0.9,0.2-1.7,0.5-2.5,0.9c0,0,0,0,0,0c0,0,0.7,9.5,9.3,13.3
	c0.6-0.5,1.1-1.1,1.6-1.8c-1.8-0.8-3.2-1.9-4.4-3.2c0,0,0,0,0,0c0,0,0,0,0,0C50.3,50.8,49.5,46.4,49.3,45L49.3,45z M45.4,54.9
	c-1,0.3-1.8,0.5-2.3,0.6c0.3,0.9,0.7,1.7,1.2,2.4c0.4-0.1,1.3-0.2,2.5-0.6C46.3,56.5,45.8,55.7,45.4,54.9L45.4,54.9z M59.1,53.7
	c-0.6,1-1.2,1.8-1.9,2.6c0.3,0.2,0.6,0.3,1,0.5C58.7,55.8,59,54.8,59.1,53.7L59.1,53.7z M58,49c-1,2.1-2.3,3.8-3.8,5.1
	c0.6,0.7,1.4,1.3,2.2,1.8c0.9-1,1.8-2.3,2.6-3.8C58.9,50.9,58.6,49.9,58,49L58,49z M43.6,49.4c-0.5,1.1-0.8,2.3-0.8,3.6
	c0,0.6,0.1,1.1,0.2,1.7c0.4-0.1,1.2-0.2,2.1-0.5C44.2,52.3,43.8,50.5,43.6,49.4L43.6,49.4z M55.7,46.4c-0.9,2-2.1,3.5-3.5,4.8
	c0.4,0.8,0.9,1.5,1.6,2.3c1.5-1.3,2.8-3.1,3.8-5.3C57,47.5,56.4,46.9,55.7,46.4L55.7,46.4z M55,45.9c-1.2-0.7-2.6-1.1-4.1-1.1
	c-0.3,0-0.5,0-0.8,0c0.1,0.9,0.5,3.1,1.6,5.5C53,49.2,54.2,47.8,55,45.9L55,45.9z M42.3,44.1l1.6,2.7c0.2-0.2,0.4-0.4,0.6-0.6
	L43,43.7c0.1-0.2,0.2-0.3,0.2-0.6c0-0.4-0.1-1-0.4-1.6c-0.3-0.6-0.8-1-1.2-1.2c-0.4-0.2-0.7-0.2-1,0c-0.3,0.2-0.4,0.5-0.5,0.9
	c0,0.4,0.1,1,0.4,1.6c0.3,0.6,0.8,1,1.2,1.2C41.9,44.1,42.1,44.1,42.3,44.1L42.3,44.1z M47.2,42.2l0.1,2.1c0.3-0.1,0.5-0.2,0.8-0.3
	L48,42.1c0.2-0.1,0.3-0.2,0.4-0.4c0.2-0.4,0.4-1,0.3-1.6c0-0.7-0.2-1.2-0.5-1.6C48,38.1,47.7,38,47.4,38c-0.3,0-0.6,0.2-0.8,0.6
	c-0.2,0.4-0.4,1-0.3,1.6c0,0.7,0.2,1.2,0.5,1.6C46.9,42,47,42.1,47.2,42.2L47.2,42.2z M42.3,43.3C42.3,43.3,42.3,43.2,42.3,43.3
	c0.1-0.2,0.1-0.3,0.1-0.3c0-0.3-0.1-0.6-0.3-1c-0.2-0.3-0.4-0.6-0.7-0.8c-0.1-0.1-0.2-0.1-0.2-0.1c0,0-0.1,0-0.1,0
	c0,0,0,0.1-0.1,0.1c0,0.1,0,0.2,0,0.3c0,0.3,0.1,0.6,0.3,1c0.2,0.3,0.4,0.6,0.7,0.8c0.1,0.1,0.2,0.1,0.2,0.1
	C42.2,43.3,42.2,43.3,42.3,43.3C42.3,43.3,42.3,43.3,42.3,43.3C42.3,43.3,42.3,43.3,42.3,43.3L42.3,43.3z M47.6,41.4
	C47.6,41.4,47.6,41.4,47.6,41.4c0.1-0.1,0.2-0.2,0.2-0.3c0.1-0.3,0.2-0.6,0.1-1c0-0.4-0.1-0.8-0.3-1c0-0.1-0.1-0.1-0.2-0.2
	c0,0-0.1-0.1-0.1-0.1c0,0-0.1,0-0.1,0.1c0,0.1-0.1,0.1-0.1,0.2c-0.1,0.3-0.2,0.6-0.1,1c0,0.4,0.1,0.8,0.3,1c0,0.1,0.1,0.1,0.2,0.2
	C47.5,41.4,47.5,41.4,47.6,41.4C47.6,41.4,47.6,41.4,47.6,41.4C47.6,41.4,47.6,41.4,47.6,41.4L47.6,41.4z"/>
</svg>
